# xmcd CD database file
#
# Track frame offsets:
#	150
#	11500
#	25470
#	37495
#	50657
#	64035
#	75467
#	88510
#	100095
#	112460
#	124975
#	137020
#	148047
#	160172
#	171460
#
# Disc length: 2440 seconds
#
# Revision: 5
# Processed by: cddbd v1.5.1PL0 Copyright (c) Steve Scherf et al.
# Submitted via: CDex 1.51
#
DISCID=da09860f
DTITLE=Nana Mouskouri - In New York
DYEAR=1964
DGENRE=Jazz
TTITLE0=No Moon At All
TTITLE1=That's My Desire
TTITLE2=Love Me or Leave Me
TTITLE3=What's Good About Goodbye
TTITLE4=Hold Me, Thrill Me, Kiss Me
TTITLE5=What Now My Love
TTITLE6=The Touch Of Your Lips
TTITLE7=These Things I Offer You
TTITLE8=Don't Go To Strangers
TTITLE9=You Forgot All The Words
TTITLE10=Smoke Gets In Your Eyes
TTITLE11=Till There Was You
TTITLE12=Almost Like Being In Love
TTITLE13=But Not For Me
TTITLE14=I Get A Kick Out Of You
EXTD=the girl from greece sings\n\nwith orchestra conducted by torrie zito\nproduced by quincy jones\n\nmercury 546 232-2 YEAR: 1964
EXTT0=
EXTT1=
EXTT2=
EXTT3=
EXTT4=
EXTT5=
EXTT6=
EXTT7=
EXTT8=
EXTT9=
EXTT10=
EXTT11=
EXTT12=
EXTT13=
EXTT14=
PLAYORDER=
